<?xml version="1.0" standalone="no"?>
<!DOCTYPE svg PUBLIC "-//W3C//DTD SVG 20010904//EN"
 "http://www.w3.org/TR/2001/REC-SVG-20010904/DTD/svg10.dtd">
<svg version="1.0" xmlns="http://www.w3.org/2000/svg"
 width="500.000000pt" height="500.000000pt" viewBox="0 0 500.000000 500.000000"
 preserveAspectRatio="xMidYMid meet">
<metadata>
Created by potrace 1.14, written by Peter Selinger 2001-2017
</metadata>
<g transform="translate(0.000000,500.000000) scale(0.100000,-0.100000)"
fill="#000000" stroke="none">
<path d="M0 2500 l0 -2500 2500 0 2500 0 0 2500 0 2500 -2500 0 -2500 0 0
-2500z m515 -1379 c70 -32 105 -86 105 -161 0 -51 -14 -85 -46 -115 l-26 -24
31 -27 c45 -38 61 -75 61 -142 0 -80 -31 -137 -95 -177 l-48 -30 -219 -3 -218
-3 0 350 0 351 208 0 c180 0 212 -3 247 -19z m755 -41 l0 -60 -70 0 -70 0 0
60 0 60 70 0 70 0 0 -60z m608 -292 l2 -348 -70 0 c-69 0 -70 0 -70 27 l0 27
-27 -26 c-36 -34 -73 -48 -128 -48 -57 0 -93 14 -133 53 -54 52 -75 102 -80
193 -10 183 77 304 218 304 54 0 81 -10 118 -43 l22 -20 0 117 0 117 73 -3 72
-3 3 -347z m2960 235 l3 -73 39 0 40 0 0 -50 0 -50 -40 0 -41 0 3 -152 3 -153
38 -3 37 -3 0 -48 0 -48 -42 -6 c-65 -9 -129 7 -155 38 -22 25 -23 33 -23 201
l0 174 -35 0 -35 0 0 50 0 50 35 0 35 0 0 75 0 76 68 -3 67 -3 3 -72z m-3788
-122 l0 -68 -51 -5 c-38 -4 -58 -12 -77 -32 -27 -26 -27 -28 -30 -191 l-3
-165 -70 0 -69 0 0 260 0 260 65 0 65 0 0 -42 1 -43 21 29 c29 39 76 66 116
66 l32 0 0 -69z m1203 58 c12 -6 34 -23 50 -37 l27 -26 0 32 0 32 65 0 65 0 0
-282 c-1 -296 -6 -334 -47 -380 -37 -41 -94 -61 -184 -66 -102 -5 -171 13
-212 56 -28 30 -50 79 -41 93 3 5 36 9 73 9 62 0 70 -2 85 -25 33 -50 142 -41
171 15 8 16 15 50 15 76 l0 47 -22 -20 c-37 -34 -64 -43 -120 -43 -134 1 -218
101 -218 260 0 114 57 222 135 256 37 16 129 18 158 3z m620 0 c89 -24 157
-126 157 -236 l0 -63 -175 0 c-195 0 -191 2 -158 -67 31 -66 129 -81 172 -28
17 22 26 25 90 25 l71 0 -15 -37 c-20 -51 -85 -108 -140 -123 -103 -29 -234 8
-286 81 -64 90 -66 249 -5 351 55 92 170 130 289 97z m649 -25 c60 -42 90
-106 96 -203 6 -102 -16 -177 -66 -233 -45 -50 -85 -68 -152 -68 -54 0 -81 10
-117 43 l-23 20 0 -126 0 -127 -70 0 -70 0 0 360 0 360 65 0 65 0 0 -32 0 -31
23 21 c44 41 79 53 144 50 50 -3 71 -10 105 -34z m522 24 c59 -18 127 -90 149
-157 37 -116 14 -235 -61 -310 -53 -53 -101 -71 -187 -71 -86 0 -134 18 -187
71 -135 135 -87 404 84 466 44 15 151 16 202 1z m556 -57 l0 -68 -51 -5 c-38
-4 -58 -12 -77 -32 -27 -26 -27 -28 -30 -191 l-3 -165 -70 0 -69 0 0 260 0
260 65 0 65 0 0 -42 1 -43 21 29 c29 39 76 66 116 66 l32 0 0 -69z m-3330
-201 l0 -260 -70 0 -70 0 0 260 0 260 70 0 70 0 0 -260z"/>
<path d="M210 945 l0 -75 95 0 c117 0 160 15 170 58 14 68 -32 92 -177 92
l-88 0 0 -75z"/>
<path d="M210 654 l0 -96 116 4 c112 3 117 4 140 31 26 30 32 83 14 117 -15
27 -71 40 -177 40 l-93 0 0 -96z"/>
<path d="M1590 843 c-84 -31 -106 -216 -34 -284 38 -36 107 -34 140 4 67 79
49 239 -31 273 -36 15 -50 16 -75 7z"/>
<path d="M2175 841 c-77 -32 -96 -199 -31 -260 50 -47 143 -27 166 35 15 39
12 141 -5 174 -25 48 -82 70 -130 51z"/>
<path d="M2741 846 c-26 -15 -50 -51 -51 -78 0 -16 11 -18 100 -18 110 0 114
2 80 58 -30 49 -82 64 -129 38z"/>
<path d="M3309 835 c-32 -17 -49 -55 -56 -122 -8 -76 17 -136 64 -158 74 -36
143 12 156 107 18 133 -69 225 -164 173z"/>
<path d="M3892 845 c-42 -19 -64 -70 -64 -152 -1 -85 25 -133 79 -152 35 -13
46 -13 78 0 53 20 75 65 75 152 0 86 -21 134 -66 153 -41 17 -60 17 -102 -1z"/>
</g>
</svg>
